<?xml version="1.0" encoding="utf-8"?>
<!-- Generator: Adobe Illustrator 25.3.0, SVG Export Plug-In . SVG Version: 6.00 Build 0)  -->
<svg version="1.1" id="Layer_1" xmlns="http://www.w3.org/2000/svg" xmlns:xlink="http://www.w3.org/1999/xlink" x="0px" y="0px"
	 viewBox="0 0 52 52" style="enable-background:new 0 0 52 52;" xml:space="preserve">
<style type="text/css">
	.st0{fill:#F9B454;}
	.st1{fill:none;stroke:#000000;stroke-width:2;stroke-linecap:round;stroke-miterlimit:10;}
	.st2{fill:#FFD46C;stroke:#000000;stroke-width:2;stroke-miterlimit:10;}
	.st3{fill:none;stroke:#000000;stroke-width:1.5254;stroke-linecap:round;stroke-miterlimit:10;}
</style>
<circle class="st0" cx="26" cy="26" r="24.9"/>
<path class="st1" d="M10.6,6.3C14.8,3,20.2,1,26,1c13.8,0,25,11.2,25,25S39.8,51,26,51S1,39.8,1,26c0-6,2.1-11.6,5.7-15.9"/>
<circle class="st2" cx="26.1" cy="25.9" r="17.1"/>
<g>
</g>
<path class="st3" d="M37.9,20.1c0.8,1.7,1.3,3.7,1.3,5.7c0,1.9-0.4,3.6-1.1,5.2"/>
<path class="st1" d="M30.5,21c0,0,0.5-4.6-4.5-4.6s-5.3,3.9-5.3,5c0,1.4,0.8,4.1,4.8,4.3c4,0.2,5.9,3.4,5.9,5.3
	c0,1.9-1.1,5.6-5.6,5.6c-4.8,0-5.4-5.3-5.4-5.7"/>
<circle cx="36.8" cy="33.1" r="0.9"/>
<circle cx="8.6" cy="8.3" r="1.2"/>
<line class="st1" x1="25.6" y1="14.3" x2="25.6" y2="38.2"/>
</svg>
